<svg xmlns="http://www.w3.org/2000/svg" width="79.75" height="79.75" viewBox="0 0 79.75 79.75">
  <path id="cart-variant" d="M72.775,73.775A7.975,7.975,0,1,1,64.8,65.8a7.947,7.947,0,0,1,7.975,7.975M24.925,65.8A7.975,7.975,0,1,0,32.9,73.775,7.947,7.947,0,0,0,24.925,65.8m.8-13.438-.12.479a.987.987,0,0,0,1,1H72.775v7.975H24.925a7.973,7.973,0,0,1-7.975-7.975,8.127,8.127,0,0,1,.957-3.828L23.33,40.24,8.975,9.975H1V2H14.039l3.748,7.975H76.763a4,4,0,0,1,3.988,3.988,5.044,5.044,0,0,1-.479,1.994L66,41.756a8.017,8.017,0,0,1-6.978,4.107H29.311l-3.589,6.5m5.184-14.475h5.981V29.913h-9.73l3.748,7.975m9.969-7.975v7.975H52.838V29.913H40.875m11.963-3.988V17.95H40.875v7.975H52.838m12.4,3.988H56.825v7.975h3.988l4.426-7.975M71.9,17.95H56.825v7.975H67.472L71.9,17.95m-50.4,0,3.748,7.975H36.888V17.95Z" transform="translate(-1 -2)" fill="#cf9426"/>
</svg>
