<?xml version="1.0" encoding="UTF-8"?>
<!DOCTYPE svg PUBLIC "-//W3C//DTD SVG 1.1//EN" "http://www.w3.org/Graphics/SVG/1.1/DTD/svg11.dtd">
<!-- Creator: CorelDRAW (Evaluation Version) -->
<svg xmlns="http://www.w3.org/2000/svg" xml:space="preserve" width="215.9mm" height="279.4mm" version="1.1" style="shape-rendering:geometricPrecision; text-rendering:geometricPrecision; image-rendering:optimizeQuality; fill-rule:evenodd; clip-rule:evenodd"
viewBox="0 0 21590 27940"
 xmlns:xlink="http://www.w3.org/1999/xlink"
 xmlns:xodm="http://www.corel.com/coreldraw/odm/2003">
 <defs>
  <style type="text/css">
   <![CDATA[
    .fil0 {fill:#1F313C}
   ]]>
  </style>
 </defs>
 <g id="Layer_x0020_1">
  <metadata id="CorelCorpID_0Corel-Layer"/>
  <path class="fil0" d="M5748.38 11953.5c0,1509.68 1260.32,2802.5 -194.88,4983.77 -2136.73,3203.04 1222.86,5219.64 3627.49,3627.58 570.57,-377.8 768.5,-573.82 1238.82,-1026.93 229.09,-220.59 371.02,-288.92 608.13,-524.7 210.65,-209.5 381.34,-323.99 609.47,-523.46 1769.07,-1546.37 2723.46,-1561.86 4493.67,-2303.5 530.62,-222.31 969.5,-573.25 1272.08,-993.58 332.12,-461.53 510.84,-943.89 563.98,-1430.93l0 -633.46c-278.6,-2640.31 -3930.74,-5220.69 -6878.13,-5220.69 -2495.22,0 -5340.63,1399.67 -5340.63,4045.9z"/>
 </g>
</svg>
