<?xml version="1.0" encoding="UTF-8"?>
<svg xmlns="http://www.w3.org/2000/svg" xml:space="preserve" width="100%" height="100%" version="1.1" style="shape-rendering:geometricPrecision; text-rendering:geometricPrecision; image-rendering:optimizeQuality; fill-rule:evenodd; clip-rule:evenodd" viewBox="0 0 21590 27940">
  <g id="Layer_x0020_1">
    <metadata id="CorelCorpID_0Corel-Layer" />
    <path className="fil0" d="M4269.93 9949.55c0,1949.06 1627.13,3618.14 -251.59,6434.25 -2758.61,4135.27 1578.76,6738.78 4683.24,4683.36 736.63,-487.75 992.17,-740.82 1599.37,-1325.81 295.76,-284.78 478.99,-373.01 785.12,-677.41 271.95,-270.47 492.32,-418.29 786.85,-675.8 2283.94,-1996.44 3516.1,-2016.43 5801.52,-2973.93 685.05,-287 1251.66,-740.09 1642.31,-1282.75 428.77,-595.85 659.51,-1218.59 728.11,-1847.38l0 -817.83c-359.67,-3408.75 -5074.74,-6740.13 -8879.94,-6740.13 -3221.45,0 -6894.99,1807.03 -6894.99,5223.43z" />
  </g>
</svg>
