<svg xmlns="http://www.w3.org/2000/svg" width="74.512" height="70.777" viewBox="0 0 74.512 70.777">
  <path id="handcuffs" d="M69.946,17.006a22.311,22.311,0,0,0-25.405-4.358L40.965,9.072a3.71,3.71,0,0,0-5.252,0l-.3.335A7.43,7.43,0,0,0,20.626,10.45a2.769,2.769,0,0,0,.112.969A7.475,7.475,0,0,0,16.9,17.9a7.345,7.345,0,0,0,1.565,4.507A3.617,3.617,0,0,0,16.9,25.351V30.38a22.351,22.351,0,1,0,14.9,0V25.351a3.617,3.617,0,0,0-1.565-2.943A7.345,7.345,0,0,0,31.8,17.9a2.769,2.769,0,0,0-.112-.969A9.12,9.12,0,0,0,33.4,15.591a11.066,11.066,0,0,1,5.848,9.76v.3c.484.261.931.633,1.416.931a14.126,14.126,0,0,1,2.943-4.321A14.909,14.909,0,1,1,53.891,47.7a17.566,17.566,0,0,1,.261,3.725,30.761,30.761,0,0,1-.261,3.725A22.352,22.352,0,0,0,69.946,17.006M28.076,6.725A3.736,3.736,0,0,1,31.8,10.45a3.617,3.617,0,0,1-1.565,2.943,7.32,7.32,0,0,0-5.886-2.943,3.736,3.736,0,0,1,3.725-3.725M22.19,14.958A7.32,7.32,0,0,0,28.076,17.9a3.725,3.725,0,0,1-7.45,0,3.617,3.617,0,0,1,1.565-2.943M39.251,51.427a14.9,14.9,0,1,1-14.9-14.9A14.9,14.9,0,0,1,39.251,51.427Z" transform="translate(-2 -3)" fill="#cf9426"/>
</svg>
