<svg xmlns="http://www.w3.org/2000/svg" width="78.75" height="77.214" viewBox="0 0 78.75 77.214">
  <path id="human-male-female-child" d="M55.781,9.683a7.683,7.683,0,1,1,7.683,7.683,7.706,7.706,0,0,1-7.683-7.683M71.147,78.83V55.781h9.6l-9.6-29.2a7.853,7.853,0,0,0-7.3-5.378h-.384a7.853,7.853,0,0,0-7.3,5.378l-3.457,9.988a13.127,13.127,0,0,1,6.915,11.909V79.214H71.147M42.336,38.494a5.762,5.762,0,1,0-5.762-5.762,5.908,5.908,0,0,0,5.762,5.762M15.445,17.366A7.683,7.683,0,1,0,7.762,9.683a7.706,7.706,0,0,0,7.683,7.683M23.128,78.83V51.939H28.89V28.89a7.706,7.706,0,0,0-7.683-7.683H9.683A7.706,7.706,0,0,0,2,28.89V51.939H7.762V78.83H23.128m24.97,0V63.464h3.841V48.1a5.908,5.908,0,0,0-5.762-5.762H38.494A5.908,5.908,0,0,0,32.732,48.1V63.464h3.841V78.83Z" transform="translate(-2 -2)" fill="#cf9426"/>
</svg>
