<svg xmlns="http://www.w3.org/2000/svg" width="78.75" height="70.777" viewBox="0 0 78.75 70.777">
  <path id="medical-bag" d="M33.5,3l-7.864,7.864v7.864h-11.8c-4.522,0-7.392,3.932-7.864,7.864L2.041,65.913c-.472,3.932,2.123,7.864,7.864,7.864H72.818c5.741,0,8.336-3.932,7.864-7.864L76.75,26.592c-.472-3.932-3.7-7.864-7.864-7.864H57.09V10.864L49.226,3H33.5m0,7.864H49.226v7.864H33.5V10.864m3.932,19.66h7.864v11.8h11.8v7.864h-11.8v11.8H37.429v-11.8h-11.8V42.321h11.8Z" transform="translate(-1.986 -3)" fill="#cf9426"/>
</svg>
