<svg xmlns="http://www.w3.org/2000/svg" width="70.935" height="70.935" viewBox="0 0 70.935 70.935">
  <path id="plus-box-multiple" d="M62.294,33.921H48.107V48.107H41.014V33.921H26.827V26.827H41.014V12.64h7.093V26.827H62.294M65.841,2H23.28a7.093,7.093,0,0,0-7.093,7.093V51.654a7.093,7.093,0,0,0,7.093,7.093H65.841a7.093,7.093,0,0,0,7.093-7.093V9.093A7.093,7.093,0,0,0,65.841,2M9.093,16.187H2V65.841a7.093,7.093,0,0,0,7.093,7.093H58.748V65.841H9.093Z" transform="translate(-2 -2)" fill="#001c34"/>
</svg>
